<svg xmlns="http://www.w3.org/2000/svg" width="88.7684" height="85.5175" viewBox="0 0 88.7684 85.5175">
  <title>header-logo</title>
  <g>
    <path d="M59.151,60.656c-.1466.0865-14.9012,8.19-14.9012,8.19L29.2732,60.7129c.0772-.045,14.9349-8.5258,14.9349-8.5258S59.0194,60.5791,59.151,60.656Z" style="fill: #c3c1c6;fill-rule: evenodd"/>
    <g>
      <path d="M43.8181,17.051c0,.0954-14.515,8.0649-14.515,8.0649V8.695c0-.0725,14.1392-8.4861,14.523-8.695" style="fill-rule: evenodd"/>
      <path d="M58.8439,8.5344C58.7791,8.4928,44.4989.0261,44.4989.0261L44.49,17.0224c.9915.6187,13.8391,8.1239,14.304,8.392Z" style="fill-rule: evenodd"/>
    </g>
    <g>
      <path d="M74.0481,68.2877c-.0828-.048.3226-16.793.269-16.7l14.2341,8.1873.2172,16.9775-14.72-8.4649" style="fill-rule: evenodd"/>
      <path d="M59.4428,77.058,73.849,68.8432s14.028,8.0655,14.7284,8.4818c-.898.5079-13.5971,7.71-14.5281,8.1925Z" style="fill-rule: evenodd"/>
    </g>
    <g>
      <polygon points="0 76.753 0.217 59.775 14.451 51.588 14.72 68.288 0 76.753" style="fill-rule: evenodd"/>
      <polygon points="29.326 77.058 14.919 68.843 0.191 77.325 14.719 85.517 29.326 77.058" style="fill-rule: evenodd"/>
    </g>
    <path d="M43.82,34.4976c.0007.0715-14.9131,8.3458-14.9131,8.3458l.0252,17.1977c.4254-.2359,14.4487-8.3364,14.8794-8.6224C43.817,51.0751,43.8209,34.5691,43.82,34.4976Z" style="fill: #232323;fill-rule: evenodd"/>
    <path d="M44.55,34.4976c-.0007.0715,14.9131,8.3458,14.9131,8.3458l-.0255,17.1977c-.4255-.2359-14.4489-8.3364-14.8791-8.6224C44.5535,51.0751,44.5494,34.5691,44.55,34.4976Z" style="fill: #8b8a8d;fill-rule: evenodd"/>
  </g>
</svg>
