<svg xmlns="http://www.w3.org/2000/svg" width="89" height="98.37" viewBox="0 0 89 98.37">
  <title>Asset 2</title>
  <g>
    <path d="M59.31,60.81,44.37,69l-15-8.15,15-8.55Z" fill="#c3c1c6" fill-rule="evenodd"/>
    <g>
      <path d="M44,17.1c0,.1-14.46,8.09-14.46,8.09V8.72C29.56,8.65,43.69.21,44.08,0" fill-rule="evenodd"/>
      <path d="M58.95,25.48c-.47-.27-13.35-7.79-14.34-8.41,0,0,0-16.22,0-17C45.51.55,58.11,8,59,8.56" fill-rule="evenodd"/>
    </g>
    <g>
      <path d="M74.24,68.47c-.08,0,.32-16.84.27-16.74l14.27,8.21L89,77" fill-rule="evenodd"/>
      <path d="M59.6,77.26C60.06,77,73,69.57,74,69c0,0,14.06,8.09,14.77,8.5-.9.51-13.63,7.73-14.57,8.21" fill-rule="evenodd"/>
    </g>
    <g>
      <polyline points="14.76 68.47 14.49 51.72 0.22 59.93 0 76.95" fill-rule="evenodd"/>
      <path d="M29.4,77.26C28.94,77,16,69.57,15,69,15,69,.89,77.11.19,77.53c.9.51,13.63,7.73,14.57,8.21" fill-rule="evenodd"/>
    </g>
    <path d="M43.93,34.59c0,.07-15,8.37-15,8.37L29,60.2c.43-.24,14.49-8.36,14.92-8.64C43.93,51.21,43.94,34.66,43.93,34.59Z" fill="#232323" fill-rule="evenodd"/>
    <path d="M44.67,34.59c0,.07,15,8.37,15,8.37l0,17.24c-.43-.24-14.49-8.36-14.92-8.64C44.67,51.21,44.67,34.66,44.67,34.59Z" fill="#8b8a8d" fill-rule="evenodd"/>
    <g>
      <path d="M20.41,98.37a8.28,8.28,0,0,1-1.88-.23v-.72c.35,0,1.16.15,1.85.15,1,0,1.23-.27,1.23-.77s-.18-.67-1.16-1.09L20,95.53c-1.11-.47-1.58-.94-1.58-1.77s.64-1.43,2.08-1.43a6.89,6.89,0,0,1,1.74.21v.7c-.61-.06-1.3-.1-1.69-.1-.84,0-1.18.1-1.18.63s.19.64,1,1l.42.18c1.34.6,1.74,1,1.74,1.84S22.11,98.37,20.41,98.37Z"/>
      <path d="M25.56,98.37c-1,0-1.42-.38-1.42-1.46V93.26L23,93.18v-.7h1.16V91h.94v1.5h1.54v.78H25.07v3.61c0,.65.05.75.59.75.32,0,.77,0,1-.05v.65A4,4,0,0,1,25.56,98.37Z"/>
      <path d="M31.15,98.23v-.45a4.54,4.54,0,0,1-2,.6c-1.42,0-1.7-1-1.7-2.23V92.48h.93v3.67c0,1,.17,1.42,1,1.42a4.87,4.87,0,0,0,1.8-.51V92.48h.94v5.75Z"/>
      <path d="M37,98.23v-.29a3.16,3.16,0,0,1-1.61.44c-1.35,0-2.14-.76-2.14-2.46v-1c0-2.06,1-2.59,2.37-2.59a6.56,6.56,0,0,1,1.35.15V90.14h.94v8.09Zm0-5a8.3,8.3,0,0,0-1.29-.14c-.93,0-1.49.26-1.49,1.8v1c0,1.14.42,1.65,1.38,1.65a3.16,3.16,0,0,0,1.4-.35Z"/>
      <path d="M39.28,91.41V90.14h1v1.28Zm0,6.81V92.48h.94v5.75Z"/>
      <path d="M43.85,98.37c-1.61,0-2.45-.93-2.45-2.6v-.84c0-1.67.84-2.6,2.45-2.6s2.46.93,2.46,2.6v.84C46.31,97.44,45.47,98.37,43.85,98.37Zm1.52-3.44c0-1.24-.46-1.78-1.52-1.78s-1.5.53-1.5,1.78v.84c0,1.24.46,1.78,1.5,1.78s1.52-.53,1.52-1.78Z"/>
      <path d="M48.36,93.66v4.57h-.93V92.48h.92v.46a3.22,3.22,0,0,1,2-.61v.84A4.25,4.25,0,0,0,48.36,93.66Z"/>
      <path d="M54.78,98.23v-.45a4.54,4.54,0,0,1-2,.6c-1.42,0-1.7-1-1.7-2.23V92.48H52v3.67c0,1,.17,1.42,1,1.42a4.87,4.87,0,0,0,1.8-.51V92.48h.94v5.75Z"/>
      <path d="M59.18,98.37a17.07,17.07,0,0,1-2.11-.15V90.14H58V92.7a3.26,3.26,0,0,1,1.55-.39c1.48,0,2.17.78,2.17,2.45v1C61.73,97.58,60.88,98.37,59.18,98.37Zm1.61-3.63c0-1.16-.37-1.61-1.35-1.61a3.33,3.33,0,0,0-1.43.3v4c.26,0,.68.05,1.19.05,1.08,0,1.59-.44,1.59-1.81Z"/>
      <path d="M62.91,91.41V90.14h1v1.28Zm0,6.81V92.48h.94v5.75Z"/>
      <path d="M68.52,98.23,66.2,95.37v2.85h-.93V90.14h.93v4.93l2.31-2.59h1.21l-2.49,2.73,2.53,3Z"/>
    </g>
  </g>
</svg>
