<svg xmlns="http://www.w3.org/2000/svg" width="112.64" height="118.61" viewBox="0 0 112.64 118.61"><title>copywriting</title><polygon points="63.64 116.42 60.64 116.42 60.64 53.77 55.72 44.35 14.11 18.24 14.35 31.48 11.53 31.53 11.23 13.05 57.95 42.34 63.64 53.06 63.64 116.42"/><rect x="34.98" y="36.37" width="2.84" height="35.51" transform="translate(-28.76 57.06) rotate(-58.66)"/><rect x="33.61" y="45.34" width="2.84" height="32.31" transform="translate(-35.71 59.43) rotate(-58.66)"/><rect x="94.51" y="35.17" width="2.84" height="62.56" transform="translate(-0.25 0.36) rotate(-0.22)"/><polygon points="95.73 37.61 41.55 5.05 41.65 15.57 38.81 15.59 38.66 0 97.19 35.17 95.73 37.61"/><rect x="77.61" y="40.58" width="2.84" height="66.72"/><polygon points="79.04 42.98 29.64 11.46 29.64 25.42 25.64 25.42 25.64 6.28 80.03 40.58 79.04 42.98"/><rect x="11.64" y="31.42" width="2" height="39"/><polygon points="62.14 118.61 11.64 89.3 11.64 79.42 13.64 79.42 13.64 87.66 61.64 115.33 109.64 87.66 109.64 32.33 62.01 4.66 51.21 10.99 49.86 8.52 62.05 1.38 112.64 30.69 112.64 89.3 62.14 118.61"/><rect x="39.37" y="14.22" width="2.12" height="2.84" transform="translate(-2.41 22.31) rotate(-29.99)"/><polygon points="61.92 57.4 48.73 53.7 54.68 43.35 57.15 44.77 53.02 51.95 62.69 54.66 61.92 57.4"/><path d="M32.83,93.55,1.07,74.28l-.6-.74a6.1,6.1,0,0,1,.13-5,6.61,6.61,0,0,1,3.87-3.07l1.1.14L38.59,85l-.33,2.59A4.43,4.43,0,0,0,35,92.22ZM3,72.12,32.4,90a7.11,7.11,0,0,1,2.5-3.84L4.72,68.4a3.48,3.48,0,0,0-1.61,1.45A3.12,3.12,0,0,0,3,72.12Z"/><path d="M46.73,97.91a1.43,1.43,0,0,1-.45-.07L32.75,93.52l.86-2.71,8.72,2.78L36.4,86.84,38.53,85l10,11.38-.6.93A1.44,1.44,0,0,1,46.73,97.91Z"/><rect x="39.95" y="91.75" width="3.34" height="2.84" transform="translate(-58.91 75.68) rotate(-56.05)"/><rect x="68.06" y="96.03" width="2.84" height="16.98" transform="translate(-55.99 107.4) rotate(-57.7)"/><rect x="85.41" y="82.7" width="2.84" height="18.4" transform="translate(-37.25 116.2) rotate(-57.7)"/><rect x="102.17" y="75.62" width="2.84" height="18.4" transform="translate(-23.46 127.06) rotate(-57.7)"/></svg>