<svg xmlns="http://www.w3.org/2000/svg" width="106.12" height="122.83" viewBox="0 0 106.12 122.83"><title>development</title><path d="M53,122.83,0,92.12V30.71L53,0l53,30.71V92.12ZM3,90.4l50.5,29,50.5-29v-58l-50.5-29L3,32.43Z"/><polygon points="48 119.88 48 61.33 104.14 31.24 105.61 33.87 51 63.11 51 114.58 75.24 99.78 75.43 109.8 72.42 109.87 72.4 104.99 48 119.88"/><rect x="45.2" y="88.86" width="63.58" height="2.98" transform="matrix(0.87, -0.49, 0.49, 0.87, -34.33, 49.14)"/><rect x="46.27" y="54.06" width="62.93" height="2.98" transform="translate(-17.07 43.69) rotate(-28.42)"/><path d="M84.3,62.28c-1.76-.85-4-.58-6.42.76h0a17.27,17.27,0,0,0-6.17,6.36,15.5,15.5,0,0,0-2.31,8.23c.11,2.55,1.14,4.42,2.9,5.28s4,.58,6.42-.76a17.27,17.27,0,0,0,6.17-6.36,15.5,15.5,0,0,0,2.31-8.23c-.11-2.55-1.14-4.42-2.9-5.28m1.06,10.5-2.6,1.47a16.85,16.85,0,0,0,.45-3.86l3-1.68a12.56,12.56,0,0,1-.81,4.06m-6.69,8.16a3.81,3.81,0,0,1-2.83-1.63l5.39-3a15.86,15.86,0,0,1-2.55,4.67m-3.35-2.48a8.79,8.79,0,0,1-.82-3.14L82.16,71a15.59,15.59,0,0,1-.51,3.9Zm-4.83-.87,3-1.68a10,10,0,0,0,.76,3.17l-2.61,1.47a5.71,5.71,0,0,1-1.12-3m.76-5.18,2.61-1.47a16.85,16.85,0,0,0-.45,3.86l-3,1.68a12.56,12.56,0,0,1,.81-4.06m6.69-8.16a3.81,3.81,0,0,1,2.83,1.63l-5.39,3a15.85,15.85,0,0,1,2.55-4.67m3.35,2.48a8.79,8.79,0,0,1,.83,3.14L74.45,74.2a15.58,15.58,0,0,1,.52-3.9Zm4.83.87-3,1.68a10,10,0,0,0-.76-3.17L85,64.63a5.7,5.7,0,0,1,1.12,3m-4.19-2.38a4.8,4.8,0,0,0-2.08-1.88,4.86,4.86,0,0,1,4.41.56ZM76,65.49a19.07,19.07,0,0,0-1.82,4.08L71.89,70.9A16.75,16.75,0,0,1,76,65.49M74.68,80a4.79,4.79,0,0,0,2.08,1.88,4.86,4.86,0,0,1-4.41-.56Zm5.89-.28a19.08,19.08,0,0,0,1.82-4.08l2.33-1.32a16.75,16.75,0,0,1-4.15,5.4"/><path d="M74.53,83.76a5.43,5.43,0,0,1-2.39-.53c-1.89-.91-3-2.9-3.11-5.6a15.88,15.88,0,0,1,2.36-8.43,17.65,17.65,0,0,1,6.31-6.49c2.49-1.41,4.89-1.68,6.76-.78h0c1.89.91,3,2.9,3.11,5.6A15.88,15.88,0,0,1,85.22,76a17.64,17.64,0,0,1-6.31,6.49A9,9,0,0,1,74.53,83.76Zm7.54-21.6a8.29,8.29,0,0,0-4,1.2,16.89,16.89,0,0,0-6,6.22,15.13,15.13,0,0,0-2.26,8c.11,2.41,1.06,4.17,2.69,5s3.8.53,6.07-.75a16.89,16.89,0,0,0,6-6.22,15.13,15.13,0,0,0,2.26-8c-.11-2.41-1.06-4.17-2.69-5h0A4.69,4.69,0,0,0,82.07,62.17ZM75,82.49a4.66,4.66,0,0,1-2.86-.91l-.45-.34,3.13-1.77.19.3a4.4,4.4,0,0,0,1.92,1.74l.92.41-1,.28A6.69,6.69,0,0,1,75,82.49ZM73.07,81.3a4.39,4.39,0,0,0,2.68.38,5.34,5.34,0,0,1-1.19-1.23Zm6,.11,1.14-1.91a18.62,18.62,0,0,0,1.78-4l0-.14,3.5-2-.52,1.08A17.19,17.19,0,0,1,80.81,80Zm3.59-5.55A19.8,19.8,0,0,1,82,77.78a17,17,0,0,0,1.81-2.53Zm-3.86,5.46h-.19a4.18,4.18,0,0,1-3.1-1.78l-.25-.34,6.62-3.74-.33.94A16.26,16.26,0,0,1,79,81.17Zm-2.43-1.91a3.38,3.38,0,0,0,2.1,1.13,15.22,15.22,0,0,0,2-3.45ZM71.52,81l-.2-.25a6,6,0,0,1-1.2-3.16l0-.24,3.68-2.08,0,.58a9.6,9.6,0,0,0,.73,3.05l.14.31Zm-.63-3.25a5.38,5.38,0,0,0,.82,2.28l2-1.15a10.21,10.21,0,0,1-.6-2.41ZM75.16,79,75,78.63a9.12,9.12,0,0,1-.86-3.27l.21-.24L83,70.35V71a16.53,16.53,0,0,1-.76,4l-.16.15Zm-.27-3.45a8.57,8.57,0,0,0,.6,2.41l5.84-3.3a15.39,15.39,0,0,0,.45-3Zm-4.72,1.59,0-.65a12.77,12.77,0,0,1,.8-4.19l0-.13,3.46-2-.08.83A16.46,16.46,0,0,0,74,74.79V75Zm1.38-4.45a12.52,12.52,0,0,0-.71,3.15L73,74.58a16.88,16.88,0,0,1,.29-2.91ZM82.2,75l.27-.83A17,17,0,0,0,83,70.39v-.22l3.63-2.1-.05.65a12.89,12.89,0,0,1-.85,4.18l-.06.13Zm1.38-4.39a16.87,16.87,0,0,1-.29,2.91l1.77-1a12.54,12.54,0,0,0,.71-3.15ZM75,74.84V74.2a15.23,15.23,0,0,1,.06-4l-.19-.15,6.69-3.85.12.35a9.13,9.13,0,0,1,.83,3.27l.47.24Zm.28-4.29a15.38,15.38,0,0,0-.45,3l6.89-3.9a8.57,8.57,0,0,0-.6-2.41ZM71,71.81l.52-1.08a17.2,17.2,0,0,1,4.24-5.52l1.7-1.43-1.14,1.91a18.6,18.6,0,0,0-1.78,4l0,.14Zm3.6-4.4a16.93,16.93,0,0,0-1.81,2.53l1.09-.61A19.72,19.72,0,0,1,74.64,67.41Zm8.2,2.48,0-.58a9.6,9.6,0,0,0-.73-3.05l-.14-.31,3.18-1.8.2.25a6,6,0,0,1,1.2,3.16l0,.24Zm0-3.62a10.21,10.21,0,0,1,.6,2.41l2.25-1.27a5.38,5.38,0,0,0-.82-2.28ZM74.7,69.73,75,68.8A16.24,16.24,0,0,1,77.65,64l.12-.15H78a4.18,4.18,0,0,1,3.1,1.78l.25.34Zm3.4-5.1a15.2,15.2,0,0,0-2,3.45l4.1-2.32A3.38,3.38,0,0,0,78.1,64.64Zm3.7,1.08-.19-.3a4.41,4.41,0,0,0-1.92-1.74l-.92-.41,1-.28a5.24,5.24,0,0,1,4.74.62l.45.34Zm-.95-2.22A5.35,5.35,0,0,1,82,64.72l1.49-.84A4.4,4.4,0,0,0,80.86,63.5Z"/><rect x="87.96" y="88.16" width="17.58" height="2.98" transform="translate(-32.48 63.26) rotate(-31.28)"/><rect x="88.5" y="93.01" width="2.98" height="7.45" transform="translate(-2.43 2.31) rotate(-1.45)"/><path d="M22,104.91v-.1h0v-2.71h0V45.65l.64-.43c17.49-9.86,35.51-20.05,53.62-29.9l1.39,2.62C59.82,27.64,42,37.67,24.75,47.39c0,17.05,0,34.63,0,51.94,1.89-1.22,3.77-2.39,5.6-3.52s3.46-2.14,5.2-3.26l1.61,2.51c-1.77,1.14-3.54,2.23-5.25,3.29-2.49,1.54-5.05,3.12-7.58,4.82-.1.08-.06.14-.14.19Z"/><path d="M21.78,88.62c-.15-1.08.66-2,.94-2.84l-8.72,6V39.26L66.52,9.42,65,6.74,10,37.44V97.18l12.2-7.87c-.13-.2-.38-.43-.42-.7"/><path d="M35,111.93v-.16h0v-2.71h0V53.12l.94-.43C53.37,42.94,71.48,32.84,89.53,23L91,25.66c-17.77,9.65-35.5,19.59-52.69,29.22,0,16.88,0,34.29-.06,51.41,1.49-1,3-1.86,4.46-2.74,2-1.19,3.87-2.32,5.72-3.58l1.67,2.47c-1.92,1.3-3.92,2.5-5.85,3.66-2.1,1.26-4.26,2.56-6.35,4a4,4,0,0,1-.45.22Z"/></svg>