<svg xmlns="http://www.w3.org/2000/svg" width="156.24" height="142.34" viewBox="0 0 156.24 142.34"><title>guerilla-marketing</title><path d="M156.24,100.57h-.11s-4.62-.48-6.69-.94c-.18,0-.42-.89-.54-1.3a4.36,4.36,0,0,0-.22-.65l0-.26-8.72-4.19h0a23.26,23.26,0,0,0-6.84,2c-1.94-1-4.34-2.17-6.45-3.27l-1.09-.51c-.56-.29-1.12-.56-1.71-.88l-.8-.41.31-32.69L102.24,44.29a4.56,4.56,0,0,0-2-2.09c-3.31-1.95-6.64-4-9.86-6l-3.5-2.14c-8.35-5.1-15.42-9.3-22.77-13.2a3.64,3.64,0,0,0-2.58-.45c-7.14,1.48-8.8,6.85-9.18,9.3l-.12-.06-.73-.39-.39-.2a6.28,6.28,0,0,0-4.19-1c-3.3.6-5.42,2-6.87,4.47a15.49,15.49,0,0,0-1.94,10.74,1.05,1.05,0,0,0-.4-.27h0a3.15,3.15,0,0,0-1.18-.06h-.1l-1.81.16c-1,.09-2.12.19-3.18.24-.87,0-1.74,0-2.66,0l-.59,0,.27-.19c.63-.44,1.22-.85,1.85-1.22s1.27-.7,1.9-1c.46-.24,1.1-.48,1.56-.73l.29-.07v-.93L33.93,39l-.23-.06-.19,0c-.33-.08-.69-.15-1-.22l-.93-.2-.89-.24-.8-.22-1.21-.28c-.82-.18-1.67-.38-2.47-.64A5.53,5.53,0,0,1,24.42,36c-1.24-1-2.48-2.14-3.68-3.19L18.67,31c-.84-.73-1.79-1.56-2.77-2.33S13.68,27,12.82,26.39l-.06,0H11.31l.22.35a.6.6,0,0,0,.1.13c1.05,1,2.13,1.92,3.17,2.85l1.93,1.73a53.54,53.54,0,0,1,6.37,6.86,1.85,1.85,0,0,0,1.15.65c.64.07,1.29.11,1.92.14s1.11.06,1.67.12c.87.09,1.73.21,2.65.34l.6.09-.76.41c-1.07.58-2.08,1.13-3.09,1.7a11.9,11.9,0,0,0-2,1.36,1.24,1.24,0,0,0-.27.37l-.07.15,1.91,1.91.08-.15c.15,0,.33-.13.51-.13h0l.64.15a44.71,44.71,0,0,0,9.65-.73,1.11,1.11,0,0,0,.66-.52A4.28,4.28,0,0,0,40,46.23l.43.3.65.45-1.23.76c-3.69,2.32-12.85,8.53-12.95,8.6l.2,0v.06c0,1.57-.26,3.48-.28,5.34s-.16,3.5-.16,5l-.27,7.94c0,12.2-.29,26-.29,37.75v.06l.27,0L74.19,142.3l.11,0,.09,0c.35-.21,34.94-21.43,37.89-23.32a3.25,3.25,0,0,1,3.08-.29c1.23.42,2.53.75,3.78,1.06l1.79.46a5.77,5.77,0,0,0,3.17,0c1-.28,1.93-.59,2.87-.88l1.14-.36c1.1,1,4.25,4,5.81,4.23h0l5.15-.75c.36.35,3.07,3,4.23,4.15l.08.08.08-.07a3.26,3.26,0,0,1,.45-.34l.09-.06,0-.09a24.8,24.8,0,0,1-2-5c.21-.2.45-.39.73-.62a27.09,27.09,0,0,0,5-5.3c1,.39,4.24,1.53,5.12,1.78l1.26.35.3.08,0-.12a3,3,0,0,1,.15-.47l0-.08-.06-.05a42.71,42.71,0,0,0-5.62-3.9c.13-.5.27-1,.4-1.47a26.18,26.18,0,0,0,.78-3.33,25.51,25.51,0,0,0,.18-3.37c0-.45,0-.91,0-1.36a49.33,49.33,0,0,1,4.79-1.17h.05V102a8.59,8.59,0,0,0,1.06-1.3ZM41.8,117.78l0,0h0c1.39-.67,4.5-2.71,4.5-4.15A8.15,8.15,0,0,0,44.6,109a12.45,12.45,0,0,0-1-1c-.12-.14-.52-.27-.52-.42v-1.53c0-1.4.16-2.8.16-4.2,0-.34.11-.69.14-1.05,0-.16.06-.32.08-.49l2.07-1.52.34.21c.28.17.55.33.8.5.42.28.9.6,1.33.95a19.31,19.31,0,0,0,10,3.8,35,35,0,0,0,7.39,0l.61-.05.36,1.44.76,3.05a4.89,4.89,0,0,1-.16,3c-.38,1-.75,2.14-1.12,3.4a19.6,19.6,0,0,0-.48,6v.16c0,.15,0,.3,0,.45a3.54,3.54,0,0,1-.34,2.12l-.29.08-.77.22-.84.2c-.5.11-1,.23-1.5.38-2.6.81-2.92,1.13-3.33,3.6a21.4,21.4,0,0,1-3.88-2.16c-.54-.35-1.1-.71-1.66-1-2.11-1.25-4-2.45-5.75-3.67-.59-.41-1.22-.8-1.83-1.18a24.91,24.91,0,0,1-3.51-2.48l.11-.05m19.63,10.14,0-.21a9,9,0,0,1,3.89-1.14l.23,0,.16,1.22L66,129.5v.05l0,0a15.63,15.63,0,0,0,2.44,1.26l.16.07v-.3a15.88,15.88,0,0,0-.18-2.72,37.12,37.12,0,0,1-.32-7.84c0-.84.05-1.7.06-2.56a8.23,8.23,0,0,1,.42-2.15c.06-.21.12-.43.18-.64a13.17,13.17,0,0,1,.59-1.75,7.26,7.26,0,0,0,.18-5.44c-.46-1.31-6.26-23.82-6.31-24v0l-1.72-.88-.05.1C60.73,84,64.65,100.35,65,101.86c-1.89.54-7.2.06-10.19-.72a14.74,14.74,0,0,1-6.52-3.65l.12-.35A30.18,30.18,0,0,0,49.75,81V81L47,79.86l.05.22a23.7,23.7,0,0,1,.22,10.45c-.57,2.79-1.56,4.79-2.2,5.25-.28.2-.55.41-.82.62a7.89,7.89,0,0,1-2.52,1.5h0l0,0A2.28,2.28,0,0,0,41,99.73c0,.1,0,.19,0,.29l-.07,1.32c-.08,1.53-.17,3.11-.27,4.66a3.65,3.65,0,0,0,.62,2.56,13.86,13.86,0,0,1,.94,1.36c.16.27.31.51.45.72a2.4,2.4,0,0,1,.45,2.61c-.24.21-2.56,2.22-4,2.11-.45,0-7.4-3.88-9.08-4.88-.26-2.48-.39-48.75-.14-52.31L44,49c5.81,3.89,11.16,7.23,15.93,9.94,9.24,5.25,15.85,7.89,19.71,7.89a5.56,5.56,0,0,0,2-.31c5.22-2,6.07-5,6.43-6.32l.09-.31a13.74,13.74,0,0,0,6.93-.43c5.66-2.25,6.4-6.44,7.08-11.32l17.41,10.77.11,29.43a8.55,8.55,0,0,1,0,.91h.11l-.12,0v.13c0,.23,0,.47,0,.71l-4.29,3.09V93a1.83,1.83,0,0,1,0-.48c.14-.66.35-1.33.55-2,.78-2.52,1.59-5.13-1.49-7.48a7.12,7.12,0,0,1-.52-4.24c.06-.41.14-.82.22-1.23l.06-.3c.29-1.5-1.24-4.58-1.31-4.72a2.75,2.75,0,0,0-2.57-1.42c-.69-.06-1.23-.11-1.41-.69-1.32-4.1-5.7-8.43-9.36-11.12-.9-.66-3.46.87-7.84,4.68l-.09.08.87.87.15-.09.15-.09c.28-.16.57-.3.85-.43a11.21,11.21,0,0,0,1.23-.66C97.5,62,98.6,61.87,99,62a.37.37,0,0,1,.23.13l0,0,0,0a21.76,21.76,0,0,1,4.6,4.46c.6.7,1.17,1.36,1.67,1.87a4.05,4.05,0,0,1,.76,1.61,4.15,4.15,0,0,0,.84,1.72,2.17,2.17,0,0,0,1.28.41,1.88,1.88,0,0,1,1.17.37,6.37,6.37,0,0,1,1.61,6.13,4.76,4.76,0,0,0,0,2.24,6.93,6.93,0,0,0,1.52,2.39c.78,1,1.59,1.95,1.59,2.74,0,7.21-2.9,11.37-8.62,12.35-3.69.63-7-.23-10.11-1.27a18.35,18.35,0,0,0-2.79-.77,3,3,0,0,0-1.17.14c-.25.06-.54.13-.88.19l-.2,0,1.49,1.75c-.2.23-1.12.81-5.25,1.51,1.17-2.75,2.3-6.84.68-11.15-.8-2.13-1.73-4.59-4.94-5.37L82,84.83c.45.71,4.29,4.86,3.89,10.84-.05.1.1.2.05.29s.14,0,.14.12h0A38.42,38.42,0,0,0,82,107.46a21.3,21.3,0,0,0,0,8.88c.48,2.11.77,4.28,1.11,6.37.19,1.2.37,2.44.59,3.67a14.54,14.54,0,0,1,.11,3.08,7.44,7.44,0,0,1-3.15,5.69,45.38,45.38,0,0,1-3.94,2.61c-.58.36-1.18.72-1.77,1.1l-.41-.18a6.56,6.56,0,0,1-.84-.42c-2.78-1.74-5.61-3.52-8.33-5.25l-.06,0a9.44,9.44,0,0,1-3.78-4.16,2.15,2.15,0,0,1-.16-.61.84.84,0,0,1,0-.27m36.7-76c-1,2.3-3.6,5.92-9.23,4.34a4.2,4.2,0,0,1-.2-1.24,13.38,13.38,0,0,0-.38-2.5A4.75,4.75,0,0,0,86,49.72l-3.4-2C74,42.53,58.08,32.94,55,31.18a.58.58,0,0,1-.36-.72c.13-1.21,1.94-4.4,4.5-6a5.41,5.41,0,0,1,4.94-.58c2.11.8,33,19,34.71,20.15.74.47.92,4.41-.63,7.87M86,56.77a7.93,7.93,0,0,1-4.18,6.32c-8.37,3.56-38.91-19-40.44-20.15a9,9,0,0,1,1.16-8.17,7.18,7.18,0,0,1,4.12-3.17,6.78,6.78,0,0,1,1.85-.17l.05-.2h0C49.91,32.22,82,50.46,84,51.65c1.81,1.1,2.09,3,2,5.11m.49,74a4.53,4.53,0,0,0,0-3.33l0-.19c-.57-2.5-1.5-7.82-1.94-10.37v-.07a28.08,28.08,0,0,1,.81-13.56,1.45,1.45,0,0,1,.21-.36l.09-.13a22.88,22.88,0,0,0,10.67-3l6.65,1.54.21.75c.17.62.36,1.25.51,1.89.27,1.1.54,2.5.8,3.86s.55,2.86.83,4c.46,1.82,1.38,2.32,3.05,3.24l.29.16a6.25,6.25,0,0,1,1.09.84l.39.34c-2.1,2-19.18,12.66-23.86,15.2l.22-.79m19.28-29.63.35-.18a7.17,7.17,0,0,1,.84-.38,21.8,21.8,0,0,0,5.65-2.81c.33.14.28.34.21.61,0,.06,0,.12,0,.18a7.23,7.23,0,0,0,3.92,8l.83.47.47.26a26.78,26.78,0,0,0-3,4.43l.11,0v0a9.53,9.53,0,0,0,.07,1.6,9.21,9.21,0,0,1,.13,1.75c-4-.73-6.58-1.75-7.38-4.7-.44-1.6-.86-3.46-1.25-5.25-.3-1.36-.63-2.77-.94-4.05m15.06,8.19a18.41,18.41,0,0,0,1.73.84,18,18,0,0,1,1.76.86c.47,1.73,1.86,5,2.09,5.57-3,2.27-7,.55-7.43.38a12.66,12.66,0,0,1-.86-4Zm-5.54-8.09a3.33,3.33,0,0,1,.15-2.88,12.08,12.08,0,0,1,6.18-5.61l8.57,4.39c-3.65,2.51-5.74,8.74-5.87,10.44-1.06-.38-7.63-2.88-9-6.34m27.64,8.22-.08,0-1.43,1.72.07.07a10,10,0,0,0,1.45,1.19c.42.29,1.47,1,2.3,1.54a11.5,11.5,0,0,1-4.77,5c-.54-.76-1.5-2-2-2.65l-.05-.07-2,.84,1.1,3.26-1.47.37c-1.89-1.54-3.15-4.81-3.53-6.58,3.61-1.84,8.36-5.23,8.37-13.41.92-.65,4.37-1.4,5.06-1l.74.42-1.9.49h0c-.33.17-.15,1.35,0,2v.06l.06,0a25.21,25.21,0,0,0,2.5.52l.35.06a12.61,12.61,0,0,1-1.09,8c-.72-.4-3.15-1.67-3.64-1.92m-4.08-8a11.91,11.91,0,0,1-3.48,8,10.68,10.68,0,0,1-3.26,2.25c-.29-6.26,5.65-9.64,6.75-10.21M137,99.6a12.59,12.59,0,0,0-7.56,11c-.28,4.26,1.3,7,2.35,8.11-3.52-.47-4.66-8.2-4.7-8.5s.32-11.47,11.14-13.78c1.58-.34,4.32.87,5.3,1.35A20.37,20.37,0,0,0,137,99.6"/><path d="M108.26,92.33c-.56,1.41-.2,2.7.8,3.13s2-.11,2.83-1.18a4,4,0,0,0,.56-3.16A1.63,1.63,0,0,0,111,89.59a4,4,0,0,0-2.7,2.74"/><path d="M103,80.35c-1.43.75-1.64,2.09-1.66,3.47A2.11,2.11,0,0,0,102.92,86c.46-.26,1.3-.47,1.61-1a25.93,25.93,0,0,1,3-2.62,1.35,1.35,0,0,0,1,.48c.22-.22.68-.46.78-.8a3.3,3.3,0,0,0,.06-1.7c.09-3-5,0-6.29,0"/><path d="M90.8,83.79a1.62,1.62,0,0,0,.6-.11,2.55,2.55,0,0,0,1.34-2.26,5.33,5.33,0,0,0-.19-2.36h0c-.47-1.2-2.57-1.21-3.2-1.19H89.1l-.18.16c-.48.41-2,1.86-1.52,3.06.37.94,2,2.69,3.4,2.69m-1.16-4.55a3.11,3.11,0,0,1,1.64.34,4.15,4.15,0,0,1,.1,1.67c-.09.7-.31,1.09-.48,1.16-.42.17-1.87-.92-2.21-1.79,0-.22.43-.86,1-1.37"/><path d="M99.11,78.22h.33c3.23,0,6.57-.09,8.34-2.09a.73.73,0,0,0-.06-1c-.28-.25-.72-.48-1-.2-1.36,1.54-4.25,1.29-7.31,1.29h0c-.38,0-.68.73-.68,1.1s.32.95.69.95"/><path d="M108.73,87.27a2,2,0,0,0,0-1c-.12-.44-.5-.56-.95-.43a1.23,1.23,0,0,0-.27,1.33.74.74,0,0,0,.72.6c.13-.13.4-.27.46-.48"/><path d="M109.33,86.74a.74.74,0,0,0,.72.6c.13-.13.4-.27.46-.48a2,2,0,0,0,0-1c-.12-.44-.5-.56-.95-.43a1.23,1.23,0,0,0-.27,1.33"/><path d="M17.53,2.08l1.44,2c.87,1.23,1.77,2.49,2.62,3.76a13,13,0,0,1,.82,1.48l.2.39L19,8.9l-.21.66.19.08a24.32,24.32,0,0,0,5.88,2l.4.07-.15-.38c-.08-.19-.14-.36-.2-.52a5.47,5.47,0,0,0-.37-.86l-.5-.85A17.59,17.59,0,0,1,22,4.65l1,.47c1,.48,2,.93,2.94,1.45,1.37.76,2.75,1.54,4.09,2.31C33.74,11,37.6,13.2,41.6,15l.1,0,.17.06,1.46-1.46-.22-.31c-1.85-2.68-3.86-5.58-6.33-9.14a1.25,1.25,0,0,0-.26-.26l-.1-.08-.13-.12-.45.3.05.17A39,39,0,0,0,39.08,11l.66,1.21c-2-1-4-2.1-5.88-3.14A170,170,0,0,0,17.55,1L17.19.86l0,.38a1.76,1.76,0,0,0,.3.84"/><path d="M41.9,15.24l-.24-.09-.11,0c-4-1.81-7.87-4-11.61-6.14-1.35-.77-2.73-1.55-4.09-2.31-.94-.52-1.9-1-2.92-1.44l-.78-.37a18.36,18.36,0,0,0,2,4.18l0,0,.48.82a5.53,5.53,0,0,1,.38.87c.06.16.12.33.2.52l.23.57-.6-.1a24.4,24.4,0,0,1-5.91-2l-.28-.12.27-.86,3.48.82-.09-.17a12.86,12.86,0,0,0-.81-1.47c-.85-1.26-1.75-2.52-2.61-3.74l0,0-1.43-2a1.87,1.87,0,0,1-.32-.9L17.06.68l.53.22A170.17,170.17,0,0,1,33.91,9l0,0c1.8,1,3.66,2,5.52,2.94L39,11.07l0,0a39.06,39.06,0,0,1-3.2-6.8L35.7,4l.6-.39.2.18.09.08a1.37,1.37,0,0,1,.29.28c2.47,3.56,4.48,6.46,6.33,9.14l.28.39ZM21.8,4.44l.22.1L23,5c1,.48,2,.93,2.95,1.45C27.33,7.22,28.71,8,30,8.77c3.75,2.13,7.61,4.33,11.6,6.14l.1,0,.1,0,1.34-1.34L43,13.41c-1.85-2.68-3.86-5.59-6.33-9.14A1.15,1.15,0,0,0,36.44,4l-.11-.09-.07-.06-.31.2,0,.08a38.9,38.9,0,0,0,3.18,6.76l0,0,.65,1.18.18.33-.33-.17c-2-1-3.94-2.09-5.85-3.12l0,0a169.91,169.91,0,0,0-16.3-8L17.33,1l0,.19a1.65,1.65,0,0,0,.28.79h0l1.43,2-.07.1.09-.07c.86,1.22,1.76,2.49,2.61,3.74a13,13,0,0,1,.83,1.49l.2.39.11.22L19.08,9l-.14.46.09,0a24.21,24.21,0,0,0,5.86,2l.2,0L25,11.36c-.08-.19-.14-.36-.2-.52a5.38,5.38,0,0,0-.36-.84L24,9.18l0,0a17.68,17.68,0,0,1-2.09-4.47Z"/><path d="M60.84,10.81,57.15,7.17,57,7.25l-.28,3.61-.45,4C56,14.39,53.22,10,52.08,8.21a2.68,2.68,0,0,0-1.14-1.1C50,6.74,39.13,2.88,39,2.86s.43,1.78.94,2c.68.25,6.32,2.34,8.48,3,1.28.41,6.44,7.62,7.17,9.18l.06.19h2s.58-4.31,1-5.62l.3.11c.19.38,3.26,7.55,3.35,7.68l1.6-.52c-.14-.64-2.86-7.71-3-8.07"/><path d="M62.23,19.52l0-.07c0-.07-.61-1.36-1.78-4.09-.7-1.61-1.41-3.28-1.56-3.58l-.14-.07c-.39,1.42-.93,5.38-.94,5.42v.09H55.61l-.09-.2c-.75-1.61-5.91-8.68-7.1-9.06-1.91-.62-6.52-2.32-8-2.88l-.44-.16c-.54-.2-1-1.85-1-2l0-.19.19.05S50,6.6,51,7a2.78,2.78,0,0,1,1.2,1.15c.48.73,1.56,2.43,4,6.33l.41-3.63.29-3.68.06,0,.12-.07L57.17,7l3.78,3.74c.17.36,2.89,7.42,3,8.09l0,.1Zm-3.67-8.13.45.21,0,0c.09.18.81,1.86,1.58,3.63s1.54,3.56,1.73,4l1.4-.45c-.31-1-2.77-7.43-3-7.92L57.14,7.32h0l-.28,3.55-.45,4,0,.32-.29-.46C53.56,10.72,52.46,9,52,8.27a2.57,2.57,0,0,0-1.09-1.06C49.94,6.84,40.68,3.56,39.21,3c.18.66.52,1.57.81,1.67l.44.16c1.52.56,6.13,2.26,8,2.88,1.34.44,6.57,7.86,7.23,9.29l0,.18h1.79a45.37,45.37,0,0,1,1-5.6Z"/><path d="M17,15.08l.7.53.32.25.17.13.43-.52L7.19,5.54c1,.4,1.92.85,2.85,1.29A38.53,38.53,0,0,0,15.41,9l.19.06.31-.67-.17-.11a86,86,0,0,0-9-4.76C4.68,2.54,2.52,1.5.46.36L.15.19l0,.36a1.06,1.06,0,0,0,.19.8c.52.57,1,1.17,1.5,1.76A20.4,20.4,0,0,0,5.58,6.91l9.68,6.91Z"/><path d="M18.24,16.15l-.26-.2-.31-.24,0-.11-.07.09L17,15.17l-1.89-1.35L5.51,7A20.48,20.48,0,0,1,1.73,3.18C1.24,2.59.74,2,.23,1.43A1.16,1.16,0,0,1,0,.54L0,0,.51.26C2.57,1.4,4.73,2.43,6.81,3.44a86.11,86.11,0,0,1,9,4.77l.25.16-.4.85-.28-.08A38.64,38.64,0,0,1,10,6.93c-.72-.34-1.44-.68-2.18-1l11,9.53ZM17.09,15l.69.52,0,0,.31.24.09.07.29-.35L6.58,5.16l.65.27c1,.4,1.92.85,2.85,1.28a38.52,38.52,0,0,0,5.36,2.2l.09,0,.23-.49-.08-.05a85.78,85.78,0,0,0-9-4.75C4.63,2.64,2.47,1.6.4.46L.25.37V.55a1,1,0,0,0,.16.72c.52.57,1,1.17,1.51,1.76A20.32,20.32,0,0,0,5.64,6.82l9.56,6.82Z"/><path d="M21.45,27l7.37.71h.09l.39,0a3.37,3.37,0,0,0,.47,0l.35,0V25.39l-.23-.07c-.39-.41-.87-.82-1.25-1.24a40.69,40.69,0,0,0-3-3c-1.75-1.51-3.62-3-5.4-4.38L18,15a1.57,1.57,0,0,0-.32-.18l-.12-.06-.16-.08-.43.47.14.15c2.49,2.74,5,5.33,7.75,8.07L27,25.6a26.67,26.67,0,0,1-4.49.3c-1.11,0-2.26,0-3.4.15L18,26.17l.78.22-1.07.23Z"/><path d="M29.29,27.86l-.4,0h-.09l-7.09-.69L17,26.67l1.33-.29-.9-.26,1.75-.19c1.14-.13,2.3-.14,3.41-.15a27.88,27.88,0,0,0,4.26-.26l-2-2c-2.71-2.74-5.25-5.33-7.75-8.07l-.21-.23.56-.62.23.13.11.06a1.63,1.63,0,0,1,.33.19l2.17,1.71C22,18.07,23.9,19.52,25.64,21a40.19,40.19,0,0,1,3,3l0,0c.38.41.87.82,1.26,1.22l.21.1v2.42l-.38.06a2.76,2.76,0,0,1-.44,0M18.43,26.58l3.31.32,7.09.69h.09a4.1,4.1,0,0,0,.88,0l.31,0V25.44l-.26,0c-.39-.4-.88-.81-1.27-1.22l-.07,0a40.44,40.44,0,0,0-3-3c-1.75-1.51-3.6-3-5.39-4.37L18,15.12a1.45,1.45,0,0,0-.29-.17l-.13-.06-.08,0-.3.33.07.08c2.49,2.74,5,5.32,7.74,8.06l2.17,2.2.15.15-.21,0a26.77,26.77,0,0,1-4.51.3c-1.11,0-2.26,0-3.39.15l-.58.06.65.18Z"/></svg>