<svg xmlns="http://www.w3.org/2000/svg" width="103" height="119.49" viewBox="0 0 103 119.49"><title>rebranding</title><path d="M51.5,119.49,0,89.62V29.87L51.5,0,103,29.87V89.62ZM3,87.94l49,28.2,49-28.2V31.55L52,3.35,3,31.55Z"/><path d="M70.57,90l-.76-.31A22.54,22.54,0,0,1,57.13,76.23l-.2-.58.35-.51a41,41,0,0,0,3.07-5.31l1.95-4,.38,4.46A15.71,15.71,0,0,0,73.58,83.93l1.6.51-1,1.37a29.12,29.12,0,0,1-3.06,3.61ZM59.65,76A20.12,20.12,0,0,0,70,87.09q.65-.69,1.24-1.42A18.14,18.14,0,0,1,60.88,74q-.59,1-1.24,2"/><path d="M76.09,82.61l-.86-.2a13.33,13.33,0,0,1-7.42-4.82A13.65,13.65,0,0,1,65,68.92v-17A14,14,0,0,0,51,38.19,13.71,13.71,0,0,0,37.15,51.76a13.82,13.82,0,0,1-14,13.67H23v-6h.18A7.44,7.44,0,0,0,30.55,52c0-11.15,9.58-20.25,20.72-20.25S72,40.79,72,51.94v17c0,3.62,2.19,6.76,5.77,7.29l1,.19-.52,1.24a28.94,28.94,0,0,1-1.75,4.17ZM50.9,36a16.1,16.1,0,0,1,16.1,16v17A11.45,11.45,0,0,0,75,80c.28-.62,1.09-1.24,1.33-1.88-4-1.19-6.33-4.94-6.33-9.21v-17c0-9.92-8.69-18-18.61-18a18,18,0,0,0-17.95,18A9.4,9.4,0,0,1,25,61.48v2A11.3,11.3,0,0,0,35.22,51.94,15.74,15.74,0,0,1,50.9,36"/><path d="M41.36,96.18,40.95,96a28.71,28.71,0,0,1-5.47-2.69l-2-1.28,2.28-.72A41.39,41.39,0,0,0,52.41,81.17l3-3,2.15,3.51a24.49,24.49,0,0,0,3.55,4.5h0a24.39,24.39,0,0,0,6.07,4.44l1.63.84-1.49,1.06a28.76,28.76,0,0,1-4.4,2.57l-.55.26L61.88,95a31.2,31.2,0,0,1-7.55-6.76A47.47,47.47,0,0,1,41.76,96Zm-2.61-3.54a26.38,26.38,0,0,0,2.55,1.14,45.32,45.32,0,0,0,12.42-8l.91-.82.73,1a29,29,0,0,0,7.18,6.83q1-.51,2-1.11a26.83,26.83,0,0,1-8.88-8.84L55,81.71l-1,1a43.75,43.75,0,0,1-15.24,9.9"/><path d="M79,74.33l-.53-.07c-2.79-.2-4.48-2.55-4.48-5.34v-17C74,39.68,63.53,29.7,51.27,29.7A22.53,22.53,0,0,0,28.78,52a5.64,5.64,0,0,1-5.61,5.43H23v-5.5a28.5,28.5,0,1,1,57,0V69.06a29.32,29.32,0,0,1-.58,4.26ZM51.15,27.47c13.49,0,24.85,11,24.85,24.46v17c0,1.27,1.26,2.38,2.37,2.87.09-.91.63-1.82.63-2.73V51.94c0-14.6-12.4-26.48-27-26.48S25,37.33,25,51.94v2.93a3.28,3.28,0,0,0,1.85-2.93,24.35,24.35,0,0,1,24.3-24.46"/><path d="M31.55,90.37,31.12,90a29.05,29.05,0,0,1-3.41-3.84l-1.09-1.47,1.81-.29A32.9,32.9,0,0,0,56,51.94a5.25,5.25,0,1,0-10.51,0,22.33,22.33,0,0,1-22,22.34h-1l.32-1A29,29,0,0,1,23,69.06V67.43h.18A15.73,15.73,0,0,0,39,51.75a11.73,11.73,0,0,1,23.45.16A39.34,39.34,0,0,1,32.13,90.23Zm-.93-4.16q.76.89,1.59,1.71a37.1,37.1,0,0,0,28.06-36,9.5,9.5,0,1,0-19,0A18.12,18.12,0,0,1,24.31,70c0,.67.07,1.34.15,2A20.1,20.1,0,0,0,43.29,51.94a7.48,7.48,0,0,1,15,0A35.14,35.14,0,0,1,30.62,86.21"/><path d="M31.51,90.5,31,90.05a29.19,29.19,0,0,1-3.43-3.85L26.4,84.57l2-.32A32.78,32.78,0,0,0,55.9,51.94a5.13,5.13,0,1,0-10.27,0A22.45,22.45,0,0,1,23.5,74.39H22.42l.37-1.07c-.21-1.41.21-2.85.21-4.28V67.43h.18A15.66,15.66,0,0,0,38.92,51.81a11.85,11.85,0,0,1,23.7.11A39.46,39.46,0,0,1,32.16,90.35Zm-4.69-5.76,1,1.31a28.92,28.92,0,0,0,3.4,3.82l.39.36.52-.12A39.2,39.2,0,0,0,62.38,51.94a11.61,11.61,0,0,0-23.21-.25,15.8,15.8,0,0,1-16,15.74H23v1.63a28.79,28.79,0,0,0-.09,4.25l-.08.86h.77A22.16,22.16,0,0,0,45.42,51.94a5.37,5.37,0,1,1,10.73,0A33,33,0,0,1,28.44,84.48Zm5.35,3.32,0,0c-.56-.55-1.1-1.13-1.6-1.72l-.13-.15.2,0A35,35,0,0,0,58.13,51.94a7.36,7.36,0,0,0-14.72,0A20.22,20.22,0,0,1,24.46,72.13h-.11V72c-.07-.67-.12-1.35-.15-2v-.12h.12A18,18,0,0,0,41.15,51.94a9.62,9.62,0,0,1,19.24,0A37.22,37.22,0,0,1,32.24,88Zm-1.34-1.77c.45.52.92,1,1.41,1.5a37,37,0,0,0,27.9-35.86,9.38,9.38,0,1,0-18.76,0,18.24,18.24,0,0,1-17,18.17c0,.59.07,1.18.13,1.77A20,20,0,0,0,43.17,51.94a7.6,7.6,0,0,1,15.2,0A35.26,35.26,0,0,1,30.84,86.29Z"/><path d="M51.38,97.54a28.94,28.94,0,0,1-3-.15l-2.81-.29,2.47-1.37a49.92,49.92,0,0,0,6-3.89l.63-.48.55.57.37.38h0a33.73,33.73,0,0,0,3.17,2.79l1.44,1.12-1.77.45a28.5,28.5,0,0,1-7,.88m3.1-3.82q-1.45,1.07-3,2a26.79,26.79,0,0,0,4.71-.44q-.9-.77-1.73-1.6"/><path d="M25.5,82.69,25.16,82a28.64,28.64,0,0,1-1.76-4.3L23,76.33l1.44-.07A24.33,24.33,0,0,0,47.53,51.94a3.24,3.24,0,0,1,6.47,0A30.82,30.82,0,0,1,26.26,82.62ZM26,78.37q.37,1,.82,1.94a28.59,28.59,0,0,0,25-28.38,1,1,0,0,0-2,0A26.62,26.62,0,0,1,26,78.37"/></svg>