<svg xmlns="http://www.w3.org/2000/svg" width="105" height="122.07" viewBox="0 0 105 122.07"><title>social-media</title><path d="M52.5,0,0,30.52v61l52.88,30.52L70.5,111.91a11.08,11.08,0,0,1-2.44-2L52.9,118.65,3,89.84V32.23L53,3.42l50,28.81V89.84L77.48,104.52A2.06,2.06,0,0,1,77.6,106a16.85,16.85,0,0,1-.64,1.91c0,.07-.34.14-.31.21L105,91.55v-61Z"/><polygon points="55.09 118.65 52.16 120.09 51.67 60.73 1.05 32.67 2.49 30.08 53.87 58.57 54.63 59.86 55.09 118.65"/><polygon points="55.09 118.04 52.66 118.04 52.16 59 52.92 57.85 103.07 30.11 104.5 32.74 55.12 59.85 55.09 118.04"/><path d="M79.53,103.36l-2.15,1.16-2.91,9.7-5.34-5L66,111.12c.09.3-.88,1,.67.2-.37-.37,0-.05,0,0,1.21.29,9.35,8.78,9.35,8.78l4.22-13.78a9.78,9.78,0,0,1-.67-3"/><path d="M79.56,92.78,66.81,85.43c-2.3-1.34-2.81-3.86-3.81-6.9v-.29a12.78,12.78,0,0,1,2.77-7.34,11.69,11.69,0,0,1,5.66-4.14,6.94,6.94,0,0,1,6.2.69l1.16.8,1.46-2c3.08-4.15,8.48-5.74,11.76-3.45A7.28,7.28,0,0,1,95,69v.29a13.77,13.77,0,0,1-3.21,8.41ZM74.44,69.33a5,5,0,0,0-2,.25,8.88,8.88,0,0,0-4.26,3.08A9.79,9.79,0,0,0,66,78.23v.29a4.94,4.94,0,0,0,2.33,4.35l10.45,6.07L89.43,75.85A10.8,10.8,0,0,0,92,69.31V69a4.4,4.4,0,0,0-1.71-3.76c-1.93-1.34-5.58,0-7.65,2.79l-3.16,4.27L76,69.88a3.21,3.21,0,0,0-1.53-.55"/><path d="M35.9,93.68a5.56,5.56,0,0,1-2.73-.87L22.48,86.65a5.13,5.13,0,0,1-1.24-1l-.09.05A2.12,2.12,0,0,1,19,85.58l-7.16-4.13A3.53,3.53,0,0,1,10.2,78.2l0-.13,2-11.6a2.37,2.37,0,0,1,1.14-1.71,2.18,2.18,0,0,1,2.18.09l8,4.59.27.17a23.06,23.06,0,0,0,3.57-3.15c.16-1,.46-3.08.46-3.1a2.5,2.5,0,0,1,1-1.66,2.79,2.79,0,0,1,2.61-.2,5.67,5.67,0,0,1,3.31,3.28,21.25,21.25,0,0,1,.68,6.16,22.19,22.19,0,0,1-.88,2.76l5.23,3a5.16,5.16,0,0,1,2.57,4.72A3.92,3.92,0,0,1,41.26,84a3.9,3.9,0,0,1-1.08,2.91,4.09,4.09,0,0,1-1.09,2.93A4.47,4.47,0,0,1,38,92.76a2.82,2.82,0,0,1-2.12.92M20.07,81.24l1.49.73a2.38,2.38,0,0,1,.88.72v0A4.35,4.35,0,0,0,23.67,84l10.69,6.16c1.13.65,1.69.6,1.85.46a1.53,1.53,0,0,0,.26-1l-.5-1.3,1.22-.58a.9.9,0,0,0,.33-1.11l-.36-1.31,1.12-.51c.12-.06.51-.3.3-1.14l-.34-1.34,1.16-.46c.25-.1.3-.5.3-.61a2.12,2.12,0,0,0-1.15-1.89l-7.41-4.26.48-1.28c.45-1.2,1-2.88,1.17-3.31a18.53,18.53,0,0,0-.59-4.82,3.37,3.37,0,0,0-1.56-1.33,2,2,0,0,0-.34-.09c-.12.81-.38,2.59-.48,3.18l-.07.42-.25.31s-4.07,4.6-6,4.6h-.14l-.53-.06-.34-.46a.53.53,0,0,0-.16-.15l-7.65-4.41L12.81,78.5a.64.64,0,0,0,.24.32l6.77,3.9Zm.33,3.3h0ZM20.24,83h0Zm12-17.31h0" fill="#010002"/><polygon points="22.33 83.57 19.76 83.08 21.62 70.52 24.2 71.02 22.33 83.57" fill="#010002"/><path d="M31.37,34.41l14.43,7.48s12.59-4.71,12.69-12.17a26.34,26.34,0,0,0,6.75-2.4A9.68,9.68,0,0,0,67,26a3.51,3.51,0,0,0,1.21-2.77,2.23,2.23,0,0,0-1.4-1.42c-2.45-1.08-7.16-.35-10.5,1.63a6.42,6.42,0,0,0-2.9,2.93c-5.57-2.94-22.09,8.07-22.09,8.07m27.2-10c1.67-1,4-1.35,5.25-.81s.86,1.78-.81,2.77-4,1.35-5.25.81-.86-1.78.81-2.77m-15.08,6c3.81-2,9.32-3.52,11.24-1.43,4.43,4.83-8.49,10.42-8.49,10.42L36.32,34Z"/><path d="M45.78,42.16l-.1-.05-14.8-7.68.35-.23c.67-.45,16.26-10.76,22.1-8.2a7.12,7.12,0,0,1,2.9-2.8c3.4-2,8.21-2.75,10.73-1.64a2.48,2.48,0,0,1,1.53,1.58v0a3.73,3.73,0,0,1-1.3,3,9.82,9.82,0,0,1-1.83,1.36,26.94,26.94,0,0,1-6.63,2.4c-.31,7.42-12.33,12-12.84,12.19ZM31.85,34.38l14,7.24c1.19-.47,12.34-5,12.43-11.9v-.2l.2,0a26.1,26.1,0,0,0,6.67-2.37,9.43,9.43,0,0,0,1.76-1.31A3.3,3.3,0,0,0,68,23.24,2,2,0,0,0,66.75,22c-2.38-1-7-.33-10.28,1.61a6.25,6.25,0,0,0-2.79,2.8l-.1.26-.25-.13C48.4,24,34.27,32.82,31.85,34.38Zm14.38,5.25L35.79,34l7.59-3.8C47.57,28,53,26.66,54.91,28.78a3.26,3.26,0,0,1,.92,3c-.86,4-9.14,7.67-9.49,7.82ZM36.86,33.7,46.25,39c1-.44,8.33-3.79,9.09-7.35a3.21,3.21,0,0,0-.8-2.8C52.85,27,47.76,28,43.6,30h0Zm22.33-6.05a3.85,3.85,0,0,1-1.52-.27,1.29,1.29,0,0,1-.87-1.08c0-.71.56-1.48,1.65-2.13h0c1.73-1,4.19-1.39,5.48-.83a1.29,1.29,0,0,1,.87,1.08c0,.71-.56,1.48-1.65,2.13A8.23,8.23,0,0,1,59.18,27.65Zm-.48-3c-.9.53-1.44,1.17-1.41,1.67,0,.27.21.5.58.66,1.16.51,3.41.15,5-.8.9-.53,1.44-1.17,1.41-1.67,0-.27-.21-.5-.58-.66-1.16-.51-3.41-.15-5,.8Z"/><path d="M48.08,39.23l9.67,5s8.44-3.16,8.5-8.16a17.66,17.66,0,0,0,4.52-1.61,6.48,6.48,0,0,0,1.21-.9,2.36,2.36,0,0,0,.81-1.86,1.49,1.49,0,0,0-.94-.95c-1.64-.72-4.8-.23-7,1.09a4.3,4.3,0,0,0-1.94,2c-3.74-2-14.8,5.41-14.8,5.41m18.23-6.72A4.52,4.52,0,0,1,69.84,32c.82.36.58,1.19-.54,1.86a4.53,4.53,0,0,1-3.52.55c-.82-.36-.58-1.19.54-1.86m-10.11,4c2.55-1.31,6.25-2.36,7.54-1,3,3.24-5.69,7-5.69,7l-6.65-3.62Z"/><path d="M57.74,44.51,47.6,39.25l.35-.23c.45-.3,10.8-7.15,14.82-5.53a5,5,0,0,1,1.94-1.84c2.3-1.36,5.56-1.85,7.26-1.1A1.74,1.74,0,0,1,73,31.65v0a2.59,2.59,0,0,1-.9,2.07,6.63,6.63,0,0,1-1.24.92,18.2,18.2,0,0,1-4.41,1.6c-.28,5-8.31,8.05-8.66,8.18ZM48.57,39.2,57.77,44c.95-.38,8.19-3.4,8.24-7.89v-.2l.2,0a17.4,17.4,0,0,0,4.44-1.58,6.24,6.24,0,0,0,1.16-.86,2.13,2.13,0,0,0,.74-1.65,1.29,1.29,0,0,0-.79-.76c-1.58-.69-4.63-.21-6.81,1.08a4.11,4.11,0,0,0-1.84,1.83l-.1.26L62.77,34C59.57,32.35,50.48,38,48.57,39.2ZM58,42.82l-7.17-3.9L56.1,36.3c2.84-1.45,6.49-2.36,7.83-.9a2.26,2.26,0,0,1,.63,2.08c-.59,2.75-6.17,5.2-6.41,5.3Zm-6.1-3.88,6.13,3.33c.78-.36,5.52-2.59,6-4.9a1.77,1.77,0,0,0-.52-1.64c-1.11-1.21-4.48-.41-7.24,1Zm14.8-4.16a2.68,2.68,0,0,1-1.06-.19A.94.94,0,0,1,65,33.8c0-.5.39-1.05,1.15-1.5h0a4.72,4.72,0,0,1,3.74-.56.94.94,0,0,1,.63.79c0,.5-.39,1.05-1.15,1.5A5.55,5.55,0,0,1,66.74,34.78Zm-.3-2.06c-.69.41-.92.82-.91,1s.12.28.34.37a4.33,4.33,0,0,0,3.29-.53c.69-.41.92-.82.91-1s-.12-.28-.34-.37a4.33,4.33,0,0,0-3.29.53Z"/><path d="M28,27.4l9.67,5s8.44-3.16,8.5-8.16a17.67,17.67,0,0,0,4.52-1.61,6.49,6.49,0,0,0,1.21-.9,2.36,2.36,0,0,0,.81-1.86,1.49,1.49,0,0,0-.94-.95c-1.64-.72-4.8-.23-7,1.09a4.3,4.3,0,0,0-1.94,2C39.07,20,28,27.4,28,27.4m18.23-6.72a4.53,4.53,0,0,1,3.52-.55c.82.36.58,1.19-.54,1.86a4.53,4.53,0,0,1-3.52.55c-.82-.36-.58-1.19.54-1.86m-10.11,4c2.55-1.31,6.25-2.36,7.54-1,3,3.24-5.69,7-5.69,7L31.32,27.1Z"/><path d="M37.66,32.69,27.52,27.42l.35-.23c.45-.3,10.81-7.15,14.82-5.53a5,5,0,0,1,1.94-1.84c2.3-1.36,5.56-1.85,7.26-1.1A1.74,1.74,0,0,1,53,19.83v0a2.59,2.59,0,0,1-.9,2.07,6.64,6.64,0,0,1-1.24.92,18.21,18.21,0,0,1-4.41,1.6c-.28,5-8.31,8.05-8.66,8.18Zm-9.16-5.31,9.2,4.77c.95-.38,8.19-3.4,8.24-7.89v-.2l.2,0a17.39,17.39,0,0,0,4.44-1.58,6.24,6.24,0,0,0,1.16-.86,2.13,2.13,0,0,0,.74-1.65,1.29,1.29,0,0,0-.79-.76c-1.58-.69-4.63-.21-6.81,1.08A4.11,4.11,0,0,0,43,22.08l-.1.26-.25-.13C39.49,20.52,30.4,26.15,28.49,27.37ZM38,31l-7.17-3.9L36,24.47c2.84-1.45,6.49-2.36,7.83-.9a2.26,2.26,0,0,1,.63,2.08c-.59,2.75-6.17,5.2-6.41,5.3Zm-6.1-3.88L38,30.45c.78-.36,5.52-2.59,6-4.9a1.77,1.77,0,0,0-.52-1.64c-1.11-1.21-4.48-.41-7.24,1ZM46.66,23a2.68,2.68,0,0,1-1.06-.19A.94.94,0,0,1,45,22c0-.5.39-1.05,1.15-1.5h0a4.72,4.72,0,0,1,3.74-.56.94.94,0,0,1,.63.79c0,.5-.39,1.05-1.15,1.5A5.54,5.54,0,0,1,46.66,23Zm-.3-2.06c-.69.41-.92.82-.91,1s.12.28.34.37a4.33,4.33,0,0,0,3.29-.53c.69-.41.92-.82.91-1s-.12-.28-.34-.37a4.33,4.33,0,0,0-3.29.53Z"/></svg>