<svg xmlns="http://www.w3.org/2000/svg" width="111.95" height="144.43" viewBox="0 0 111.95 144.43"><title>video-production</title><text></text><path d="M59.9,67.34c-2.71,0-5.52-1.37-8.09-4a28,28,0,0,1-6.65-12.52c-2.78-10.81.2-20.61,6.79-22.3S65.87,34,68.65,44.79h0A28,28,0,0,1,68.86,59c-1.23,4.4-3.72,7.28-7,8.13A7.86,7.86,0,0,1,59.9,67.34Zm-6-36.16a4.91,4.91,0,0,0-1.23.15c-4.85,1.25-7,9.85-4.71,18.78a25,25,0,0,0,5.91,11.21c2.45,2.49,5,3.55,7.27,3s4-2.75,4.94-6.11a25,25,0,0,0-.23-12.67h0C63.74,37.31,58.49,31.17,53.9,31.17Z"/><path d="M64.08,66.13l-1.47-2.49,11.64-6.88C77.24,45,72,31.19,63.36,28.21L51.68,31.68l-.82-2.77,12.53-3.72.42.13c5,1.52,9.36,6.09,11.92,12.55a32.32,32.32,0,0,1,1.16,20.23l-.16.56Z"/><path d="M34.37,56.21c-3.48,0-7.11-1.78-10.44-5.17A36.75,36.75,0,0,1,15.2,34.58a36.75,36.75,0,0,1-.28-18.63c1.59-5.69,4.78-9.41,9-10.49s8.8.65,12.93,4.86a36.75,36.75,0,0,1,8.73,16.46,36.75,36.75,0,0,1,.28,18.63c-1.59,5.69-4.78,9.41-9,10.49A10,10,0,0,1,34.37,56.21ZM26.38,8a7,7,0,0,0-1.76.22c-3.16.81-5.62,3.82-6.92,8.47A33.84,33.84,0,0,0,18,33.86,33.84,33.84,0,0,0,26,49c3.38,3.45,7,4.9,10.15,4.08s5.62-3.82,6.92-8.47a33.84,33.84,0,0,0-.3-17.13h0a33.84,33.84,0,0,0-8-15.15C32,9.52,29.08,8,26.38,8Z"/><rect x="39.63" y="48.96" width="7.82" height="2.89" transform="translate(-20.76 33.01) rotate(-34.04)"/><path d="M56.48,28.42H53.59c0-8-6.09-22.24-14.56-24.73L23.28,8.54l-.82-2.68L39,1l.39.12c4.61,1.17,9,4.83,12.39,11C54.71,17.48,56.48,24.42,56.48,28.42Z"/><path d="M87.54,127.33a8.87,8.87,0,0,1-3.67-.77c-7.48-3.36-8.58-16.59-2.5-30.11C85.66,86.91,92.6,79.65,99.07,78a9.55,9.55,0,0,1,6.48.38c3.72,1.67,6,5.84,6.35,11.72.35,5.56-1,12.08-3.85,18.38C102.91,119.87,94.53,127.33,87.54,127.33Zm14.35-46.86a8.25,8.25,0,0,0-2.09.29C94.24,82.21,87.89,89,84,97.64c-5.23,11.64-4.75,23.67,1.05,26.28s15.12-5,20.36-16.66h0c2.64-5.88,3.92-11.92,3.6-17-.3-4.76-2-8.06-4.65-9.27A6,6,0,0,0,101.89,80.47Z"/><path d="M79.4,122.09c-10.64-11.11-10-20.79-9.93-21.77.29-8,4.88-13.77,6.4-15.66l.18-.22c.1-.12,1.58-1.89,1.89-2.18,10-9.38,22.88-4.79,23.42-4.59l-1,2.28a16.9,16.9,0,0,0-7-1.53h-.11a19.23,19.23,0,0,0-13.3,5.51c-.23.23-1.45,1.9-1.6,2.09l-.19.35c-1.37,1.71-5.53,7-5.77,14.06v.15c0,.08-.84,9.1,9.14,19.51Z"/><path d="M79.57,114.17l-1.31-2.58c6.63-3.35,11-9.26,13.08-17.55a39.94,39.94,0,0,0,1.11-11.74L95.33,82a42.11,42.11,0,0,1-1.16,12.6C91.95,103.71,86.9,110.46,79.57,114.17Z"/><path d="M101.43,78.47l-1-22.53-5.79-3.29C88.5,49.17,79.24,43.93,74,40.82l1.48-2.49c5.22,3.1,14.46,8.33,20.57,11.8,4.64,2.63,6.29,3.57,6.58,3.76l.61.41,1.09,24Z"/><polygon points="53.1 144.44 1.92 114.63 1.92 55.01 20.82 43.24 22.1 45.71 3.92 56.64 3.92 112.95 52.69 141.11 83.77 123.97 85.39 126.5 53.1 144.44"/><path d="M21.92,47.57C21.92,47.49,11.14,38.4.75,37L0,34.33,10.43,28l1.15-.13,4.81,1.59-.92,2.75-4.21-1.38L4.87,34.9c9.48,2.57,17,9.26,17,9.58Z"/><polygon points="52.84 86.52 1.76 57.62 3.19 55.1 52.83 83.19 102.15 54.57 103.6 57.07 52.84 86.52"/><path d="M22.35,109.5c-.26,0,0-.07-.24-.21-.43-.26-.19-.73-.19-1.24V84.44c0-.63-.11-1.18.49-1.37a1.1,1.1,0,0,1,1.36.52L36.19,100.7a1.42,1.42,0,0,1,.18,1.19,1.49,1.49,0,0,1-.78,1L23,109.34A1.51,1.51,0,0,1,22.35,109.5Zm1.57-20.64v16.82l8.94-4.63Z"/><polygon points="54.82 142.25 51.22 142.24 51.44 84.56 55.03 84.57 54.82 142.25"/><path d="M57.89,56.73c-2.85,0-5.74-3.06-6.88-7.5a12.54,12.54,0,0,1-.09-6.36c.59-2.09,1.8-3.47,3.41-3.89s3.34.21,4.86,1.76a12.54,12.54,0,0,1,3,5.62h0c1.27,4.94-.19,9.44-3.33,10.25A3.9,3.9,0,0,1,57.89,56.73ZM55.31,41.27a1.48,1.48,0,0,0-.37,0,2.86,2.86,0,0,0-1.69,2.2,10.26,10.26,0,0,0,.1,5.11c1,3.82,3.38,6,4.92,5.64s2.57-3.5,1.59-7.32a10.26,10.26,0,0,0-2.38-4.53A3.28,3.28,0,0,0,55.31,41.27Z"/><path d="M31.76,42.52a6.93,6.93,0,0,1-4.85-2.36,15.8,15.8,0,0,1-3.77-7.08c-1.6-6.21.23-11.87,4.16-12.88s8.25,3.07,9.85,9.28a15.8,15.8,0,0,1,.11,8C36.52,40.12,35,41.85,33,42.36A5,5,0,0,1,31.76,42.52ZM28.49,22.94A1.93,1.93,0,0,0,28,23c-2,.51-3.33,4.48-2.07,9.36a13.08,13.08,0,0,0,3,5.77c1.13,1.16,2.34,1.68,3.3,1.43s1.76-1.28,2.2-2.84a13.07,13.07,0,0,0-.13-6.52h0C33.19,25.7,30.47,22.94,28.49,22.94Z"/></svg>